<svg xmlns="http://www.w3.org/2000/svg" viewBox="0 0 32 32" width="32" height="32">
  <defs>
    <linearGradient id="a" x1="0%" y1="0%" x2="100%" y2="100%">
      <stop offset="0%" style="stop-color:#f3ba2f"/>
      <stop offset="100%" style="stop-color:#f3ba2f"/>
    </linearGradient>
  </defs>
  <circle cx="16" cy="16" r="16" fill="url(#a)"/>
  <path d="M12.116 14.404L16 10.52l3.886 3.886 2.26-2.26L16 6l-6.144 6.144 2.26 2.26zM6 16l2.26-2.26L10.52 16l-2.26 2.26L6 16zm6.116 1.596L16 21.48l3.886-3.886 2.26 2.26L16 26l-6.144-6.144 2.26-2.26zm9.764-5.856L26 16l-2.26 2.26L21.48 16l2.26-2.26z" fill="#fff"/>
  <path d="M13.43 16l2.57-2.57L18.57 16l-2.57 2.57L13.43 16z" fill="#fff"/>
</svg>
